<?xml version="1.0" encoding="UTF-8" standalone="no"?>
<!-- Created with Inkscape (http://www.inkscape.org/) -->

<svg
   xmlns:dc="http://purl.org/dc/elements/1.1/"
   xmlns:cc="http://creativecommons.org/ns#"
   xmlns:rdf="http://www.w3.org/1999/02/22-rdf-syntax-ns#"
   xmlns:svg="http://www.w3.org/2000/svg"
   xmlns="http://www.w3.org/2000/svg"
   xmlns:sodipodi="http://sodipodi.sourceforge.net/DTD/sodipodi-0.dtd"
   xmlns:inkscape="http://www.inkscape.org/namespaces/inkscape"
   width="210mm"
   height="297mm"
   viewBox="0 0 210 297"
   version="1.1"
   id="svg8"
   inkscape:version="0.92.4 (unknown)"
   sodipodi:docname="drawing2.svg">
  <defs
     id="defs2" />
  <sodipodi:namedview
     id="base"
     pagecolor="#ffffff"
     bordercolor="#666666"
     borderopacity="1.0"
     inkscape:pageopacity="0.0"
     inkscape:pageshadow="2"
     inkscape:zoom="0.98994949"
     inkscape:cx="256.91809"
     inkscape:cy="904.39569"
     inkscape:document-units="mm"
     inkscape:current-layer="layer1"
     showgrid="false"
     inkscape:window-width="1299"
     inkscape:window-height="713"
     inkscape:window-x="67"
     inkscape:window-y="27"
     inkscape:window-maximized="1" />
  <metadata
     id="metadata5">
    <rdf:RDF>
      <cc:Work
         rdf:about="">
        <dc:format>image/svg+xml</dc:format>
        <dc:type
           rdf:resource="http://purl.org/dc/dcmitype/StillImage" />
        <dc:title></dc:title>
      </cc:Work>
    </rdf:RDF>
  </metadata>
  <g
     inkscape:label="Layer 1"
     inkscape:groupmode="layer"
     id="layer1">
    <path
       style="opacity:1;vector-effect:none;fill:#000000;fill-opacity:1;stroke:#000000;stroke-width:0;stroke-linecap:butt;stroke-linejoin:miter;stroke-miterlimit:4;stroke-dasharray:none;stroke-dashoffset:0;stroke-opacity:1"
       id="path815"
       d="M 3.8914281,6.7470125 C 4.338616,6.3710192 4.7996093,6.0184958 5.2792018,5.6853042 6.0547852,5.1902015 6.3305909,5.1486799 6.7733015,5.9461209 7.1016327,7.0550655 6.651727,8.1230781 6.1357057,9.0929451 5.5796478,10.143549 4.7563928,10.970851 3.7483724,11.584734 3.1391225,11.933338 2.2164127,12.407061 2.1362138,11.347868 2.315242,10.56232 2.8982977,9.9884448 3.5517537,9.5614084 3.8047869,9.4412304 4.0470195,9.2950039 4.310853,9.2008747 4.9222477,8.9827445 5.2227318,9.7951956 5.3883734,10.195167 c 0.2327079,0.700554 0.3537857,1.42975 0.6692696,2.101198 0.040769,0.05582 0.081539,0.111633 0.1223084,0.167449 0,0 -0.4531804,0.267769 -0.4531804,0.267769 v 0 C 5.6848337,12.672611 5.6428965,12.613639 5.6009592,12.554668 5.2907249,11.879923 5.1669235,11.150972 4.935625,10.448838 4.8116476,10.152964 4.7027613,9.7741683 4.4108698,9.5903049 4.3373169,9.5439739 4.2516361,9.5136133 4.1654851,9.5020113 4.0771968,9.4901209 3.9618618,9.5844166 3.8989309,9.5213629 3.8512506,9.473589 3.9907016,9.4223617 4.036587,9.3728608 3.382646,9.7791126 2.8051749,10.341812 2.6024193,11.106764 c 0.01481,0.335349 0.1162707,0.580922 0.5053064,0.582347 0.094745,3.44e-4 0.1972331,-0.08406 0.2813449,-0.04045 0.051423,0.02666 -0.082283,0.08155 -0.1234252,0.122325 C 4.2807937,11.169873 5.112323,10.349689 5.6718054,9.3012304 6.1854915,8.3511407 6.638178,7.2991656 6.3203176,6.2068201 6.2003135,5.9937488 6.0880585,5.7601498 5.8433842,5.6637179 5.6309976,5.5800114 5.4884261,5.6711368 5.4967515,5.6601354 5.5607447,5.5755722 5.6772658,5.548785 5.7675229,5.4931098 5.2895732,5.8263501 4.8218849,6.1677338 4.3824178,6.5517534 c 0,0 -0.4909897,0.1952594 -0.4909897,0.1952591 z"
       inkscape:connector-curvature="0" />
    <path
       style="opacity:1;vector-effect:none;fill:#000000;fill-opacity:1;stroke:#000000;stroke-width:0;stroke-linecap:butt;stroke-linejoin:miter;stroke-miterlimit:4;stroke-dasharray:none;stroke-dashoffset:0;stroke-opacity:1"
       id="path819"
       d="m 8.3669433,10.94015 c 0.3410598,0.14321 0.5276701,0.383848 0.5218384,0.751092 -0.037022,0.293596 -0.056785,0.315322 -0.5391605,0.325676 -0.00904,1.94e-4 -0.016092,-0.141747 -0.024101,-0.272888 -0.011263,-0.266734 0.028254,-0.577622 0.2052318,-0.789684 0.1758479,-0.09106 0.3403031,-0.20872 0.5275437,-0.273184 0.1214048,-0.0418 0.220222,0.562752 0.2319052,0.636724 0,0 -0.4676847,0.24732 -0.4676847,0.24732 v 0 c -0.021788,-0.146903 -0.038937,-0.301004 -0.090042,-0.441486 -0.011893,-0.03269 -0.025635,-0.06587 -0.047487,-0.09294 -0.012483,-0.01546 -0.066906,-0.01713 -0.051616,-0.02982 0.1183473,-0.09822 0.2587564,-0.166317 0.3881344,-0.249475 -0.2040286,0.162798 -0.2313574,0.509141 -0.2262954,0.749643 0.00295,0.04928 0.00474,0.09864 0.00884,0.147835 0.00325,0.03905 0.041169,0.08935 0.013221,0.116819 -0.6789483,0.667369 -0.442513,0.403368 -0.4017166,0.16442 0.020495,-0.35305 -0.1641324,-0.566039 -0.4905668,-0.699262 0,0 0.4419549,-0.290791 0.4419549,-0.290791 z"
       inkscape:connector-curvature="0" />
    <path
       style="fill:#000000;stroke-width:0.26458332"
       d="m 30.305554,68.250814 c -7.245901,-8.65704 -13.394087,-16.0194 -13.662636,-16.3608 l -0.488271,-0.62074 8.880253,-13.33868 c 4.884138,-7.33627 8.961311,-13.42801 9.060383,-13.53719 0.09907,-0.10919 8.618729,1.11415 18.932573,2.71853 10.313842,1.60438 18.867249,2.87878 19.007571,2.83201 0.140319,-0.0468 -6.965429,-4.5338 -15.790555,-9.97116 -8.825127,-5.43737 -16.00539,-9.92642 -15.956141,-9.9756693 0.138696,-0.138697 74.601039,-6.187825 74.718899,-6.06997 0.19103,0.191032 23.34167,59.5274493 23.25787,59.6112593 -0.0454,0.0454 -9.95408,-0.55988 -22.01938,-1.34497 -12.0653,-0.78509 -21.958561,-1.40902 -21.985011,-1.38652 -0.0264,0.0225 6.402931,2.76846 14.287501,6.10213 24.4314,10.32982 26.13423,11.05993 26.03247,11.1617 -0.0661,0.0661 -90.122988,5.920135 -91.073705,5.920135 -0.0151,0 -5.95592,-7.083035 -13.201821,-15.740065 z m 60.299485,12.431085 c 23.137811,-1.49411 42.009221,-2.740665 41.936461,-2.770115 -0.4281,-0.17326 -80.32464,-13.69955 -80.452645,-13.62043 -0.08586,0.0531 -1.980509,4.38955 -4.210322,9.63664 -2.229813,5.247095 -4.097216,9.497155 -4.149783,9.444585 -0.05257,-0.0526 1.747914,-4.42349 4.001066,-9.713175 2.253154,-5.28967 4.070731,-9.63789 4.039057,-9.66269 -1.603526,-1.25584 -18.083961,-13.42403 -18.286673,-13.50182 -0.323991,-0.12433 -16.579828,0.88024 -16.733685,1.0341 -0.109093,0.10909 26.283544,31.699935 26.730463,31.995205 0.162144,0.10712 1.366371,0.12266 2.676059,0.0345 1.309687,-0.0881 21.312187,-1.38271 44.450002,-2.87682 z m 41.671871,-3.462295 c -0.50932,-0.22031 -9.49854,-4.02574 -19.97604,-8.45651 l -19.050001,-8.05594 -30.427083,-7.24872 c -16.734895,-3.98679 -30.436945,-7.23116 -30.448999,-7.2097 -0.01205,0.0215 0.257652,0.93199 0.599349,2.02339 l 0.621267,1.98438 8.896753,6.61458 c 4.893214,3.63802 9.108813,6.71792 9.368001,6.84423 0.421973,0.20564 79.982143,13.85942 80.945923,13.8916 0.21828,0.007 -0.0198,-0.167 -0.52917,-0.38731 z m 5.41453,-14.11556 c 0.0848,-0.13713 -4.99224,-13.41424 -11.28221,-29.5047 -8.79467,-22.497785 -11.50645,-29.1781353 -11.74001,-28.9209833 -0.2399,0.264132 -11.98889,18.5626333 -12.62491,19.6626933 -0.0885,0.15306 4.2302,5.50416 9.59711,11.89133 l 9.758,11.61305 -0.76775,1.04398 -0.76776,1.04398 0.58411,0.4498 c 0.32126,0.24739 4.15598,3.04432 8.5216,6.21541 4.36563,3.17108 8.1161,5.94857 8.33438,6.17218 0.51891,0.5316 -0.7783,-0.39098 -9.65729,-6.86831 -4.07459,-2.97245 -7.54771,-5.48974 -7.71805,-5.59398 -0.17034,-0.10425 -17.82609,-2.15117 -39.235011,-4.54874 l -38.925293,-4.3592 -4.553534,2.28787 -4.553535,2.28788 1.322917,0.33849 c 0.727604,0.18617 14.36026,3.44123 30.294791,7.23346 l 28.971874,6.89497 21.563551,1.42471 c 11.85994,0.78359 21.8244,1.43838 22.14323,1.45508 0.31884,0.0167 0.64904,-0.0818 0.73379,-0.21897 z M 24.856079,50.653374 c 4.438385,-0.28846 8.149871,-0.52553 8.247745,-0.52682 0.09788,-10e-4 -0.105284,-0.92036 -0.451464,-2.04237 -0.346181,-1.12202 -0.604854,-2.06113 -0.574829,-2.08691 0.03002,-0.0258 2.138183,-1.08569 4.684798,-2.35536 2.546614,-1.26966 4.656791,-2.33159 4.689279,-2.35984 0.03249,-0.0282 -1.549264,-3.72146 -3.515005,-8.20714 -1.965741,-4.48568 -3.531108,-8.19875 -3.478593,-8.25126 0.05251,-0.0525 1.683445,3.54 3.624289,7.98336 1.940844,4.44337 3.632228,8.14277 3.75863,8.22089 0.126402,0.0781 17.685609,2.09685 39.02046,4.48607 36.627911,4.10183 38.810931,4.31826 39.154431,3.88181 0.51958,-0.66018 0.94173,-1.42039 0.8393,-1.51143 -0.0482,-0.0428 -10.74367,-3.96163 -23.767791,-8.70846 l -23.68021,-8.63061 -19.437643,-3.02328 c -10.690701,-1.6628 -19.538043,-2.96122 -19.660757,-2.88538 -0.245834,0.15193 -17.654723,26.19577 -17.654723,26.41161 0,0.0739 0.02977,0.13323 0.06615,0.13194 0.03638,-10e-4 3.697552,-0.23836 8.135937,-0.52682 z m 95.611931,-3.50573 c -0.17153,-0.28582 -17.64689,-21.18996 -18.47131,-22.0955 -0.26736,-0.29366 -60.225383,-14.680184 -60.413576,-14.49583 -0.0407,0.03987 6.946673,4.39864 15.527491,9.68615 8.580818,5.28751 15.558248,9.68362 15.5054,9.76913 -0.05285,0.0855 0.103532,0.16705 0.347509,0.18121 0.243978,0.0142 10.980625,3.89667 23.859225,8.62781 12.878591,4.73116 23.511951,8.61462 23.629681,8.62993 0.11773,0.0153 0.12473,-0.121 0.0156,-0.3029 z m -12.31344,-32.77356 c 3.54037,-5.5380673 6.39787,-10.1083143 6.35,-10.1561093 -0.14489,-0.144671 -72.450575,5.7990793 -72.450575,5.9556613 0,0.121569 58.601735,14.176888 59.398965,14.246538 0.14552,0.0127 3.16125,-4.50803 6.70161,-10.04609 z"
       id="path1312"
       inkscape:connector-curvature="0" />
  </g>
</svg>
